solid CanbusGateway-V2.2-top
facet normal 0.0 0.0 -1.0
  outer loop
    vertex 6074.266349454824 468.3683499875001 0.49999999999999994
    vertex 6036.266349454824 411.6183499874996 0.49999999999999994
    vertex 6036.266349454824 468.3683499875001 0.49999999999999994
  endloop
endfacet
facet normal 0.0 0.0 -1.0
  outer loop
    vertex 6036.266349454824 411.6183499874996 0.49999999999999994
    vertex 6074.266349454824 468.3683499875001 0.49999999999999994
    vertex 6074.266349454824 411.6183499874996 0.49999999999999994
  endloop
endfacet
facet normal -1.0 0.0 0.0
  outer loop
    vertex 6036.266349454824 468.3683499875001 1.9999999999999998
    vertex 6036.266349454824 411.6183499874996 0.49999999999999994
    vertex 6036.266349454824 411.6183499874996 1.9999999999999998
  endloop
endfacet
facet normal -1.0 0.0 0.0
  outer loop
    vertex 6036.266349454824 411.6183499874996 0.49999999999999994
    vertex 6036.266349454824 468.3683499875001 1.9999999999999998
    vertex 6036.266349454824 468.3683499875001 0.49999999999999994
  endloop
endfacet
facet normal 0.0 1.0 0.0
  outer loop
    vertex 6036.266349454824 468.3683499875001 1.9999999999999998
    vertex 6074.266349454824 468.3683499875001 0.49999999999999994
    vertex 6036.266349454824 468.3683499875001 0.49999999999999994
  endloop
endfacet
facet normal 0.0 1.0 0.0
  outer loop
    vertex 6074.266349454824 468.3683499875001 0.49999999999999994
    vertex 6036.266349454824 468.3683499875001 1.9999999999999998
    vertex 6074.266349454824 468.3683499875001 1.9999999999999998
  endloop
endfacet
facet normal 1.0 0.0 0.0
  outer loop
    vertex 6074.266349454824 468.3683499875001 0.49999999999999994
    vertex 6074.266349454824 411.6183499874996 1.9999999999999998
    vertex 6074.266349454824 411.6183499874996 0.49999999999999994
  endloop
endfacet
facet normal 1.0 0.0 0.0
  outer loop
    vertex 6074.266349454824 411.6183499874996 1.9999999999999998
    vertex 6074.266349454824 468.3683499875001 0.49999999999999994
    vertex 6074.266349454824 468.3683499875001 1.9999999999999998
  endloop
endfacet
facet normal -0.0 -1.0 -0.0
  outer loop
    vertex 6074.266349454824 411.6183499874996 1.9999999999999998
    vertex 6036.266349454824 411.6183499874996 0.49999999999999994
    vertex 6074.266349454824 411.6183499874996 0.49999999999999994
  endloop
endfacet
facet normal -0.0 -1.0 -0.0
  outer loop
    vertex 6036.266349454824 411.6183499874996 0.49999999999999994
    vertex 6074.266349454824 411.6183499874996 1.9999999999999998
    vertex 6036.266349454824 411.6183499874996 1.9999999999999998
  endloop
endfacet
facet normal -0.0 -0.0 1.0
  outer loop
    vertex 6036.266349454824 411.6183499874996 1.9999999999999998
    vertex 6037.766349454825 413.1183499874996 1.9999999999999998
    vertex 6036.266349454824 468.3683499875001 1.9999999999999998
  endloop
endfacet
facet normal -0.0 -0.0 1.0
  outer loop
    vertex 6037.766349454825 413.1183499874996 1.9999999999999998
    vertex 6036.266349454824 411.6183499874996 1.9999999999999998
    vertex 6074.266349454824 411.6183499874996 1.9999999999999998
  endloop
endfacet
facet normal -0.0 -0.0 1.0
  outer loop
    vertex 6037.766349454825 413.1183499874996 1.9999999999999998
    vertex 6074.266349454824 411.6183499874996 1.9999999999999998
    vertex 6072.766349454824 413.1183499874996 1.9999999999999998
  endloop
endfacet
facet normal -0.0 -0.0 1.0
  outer loop
    vertex 6072.766349454824 413.1183499874996 1.9999999999999998
    vertex 6074.266349454824 411.6183499874996 1.9999999999999998
    vertex 6072.766349454824 466.8683499875001 1.9999999999999998
  endloop
endfacet
facet normal -0.0 -0.0 1.0
  outer loop
    vertex 6036.266349454824 468.3683499875001 1.9999999999999998
    vertex 6037.766349454825 466.8683499875001 1.9999999999999998
    vertex 6074.266349454824 468.3683499875001 1.9999999999999998
  endloop
endfacet
facet normal -0.0 -0.0 1.0
  outer loop
    vertex 6037.766349454825 466.8683499875001 1.9999999999999998
    vertex 6036.266349454824 468.3683499875001 1.9999999999999998
    vertex 6037.766349454825 413.1183499874996 1.9999999999999998
  endloop
endfacet
facet normal -0.0 -0.0 1.0
  outer loop
    vertex 6074.266349454824 468.3683499875001 1.9999999999999998
    vertex 6037.766349454825 466.8683499875001 1.9999999999999998
    vertex 6072.766349454824 466.8683499875001 1.9999999999999998
  endloop
endfacet
facet normal -0.0 -0.0 1.0
  outer loop
    vertex 6074.266349454824 468.3683499875001 1.9999999999999998
    vertex 6072.766349454824 466.8683499875001 1.9999999999999998
    vertex 6074.266349454824 411.6183499874996 1.9999999999999998
  endloop
endfacet
facet normal 0.0 1.0 0.0
  outer loop
    vertex 6037.766349454825 466.8683499875001 5.45
    vertex 6072.766349454824 466.8683499875001 1.9999999999999998
    vertex 6037.766349454825 466.8683499875001 1.9999999999999998
  endloop
endfacet
facet normal 0.0 1.0 0.0
  outer loop
    vertex 6072.766349454824 466.8683499875001 1.9999999999999998
    vertex 6037.766349454825 466.8683499875001 5.45
    vertex 6072.766349454824 466.8683499875001 5.45
  endloop
endfacet
facet normal 1.0 0.0 0.0
  outer loop
    vertex 6072.766349454824 466.8683499875001 1.9999999999999998
    vertex 6072.766349454824 413.1183499874996 5.45
    vertex 6072.766349454824 413.1183499874996 1.9999999999999998
  endloop
endfacet
facet normal 1.0 0.0 0.0
  outer loop
    vertex 6072.766349454824 413.1183499874996 5.45
    vertex 6072.766349454824 466.8683499875001 1.9999999999999998
    vertex 6072.766349454824 466.8683499875001 5.45
  endloop
endfacet
facet normal 0.0 -1.0 0.0
  outer loop
    vertex 6072.766349454824 413.1183499874996 5.45
    vertex 6037.766349454825 413.1183499874996 1.9999999999999998
    vertex 6072.766349454824 413.1183499874996 1.9999999999999998
  endloop
endfacet
facet normal 0.0 -1.0 0.0
  outer loop
    vertex 6037.766349454825 413.1183499874996 1.9999999999999998
    vertex 6072.766349454824 413.1183499874996 5.45
    vertex 6037.766349454825 413.1183499874996 5.45
  endloop
endfacet
facet normal -1.0 -0.0 -0.0
  outer loop
    vertex 6037.766349454825 466.8683499875001 5.45
    vertex 6037.766349454825 413.1183499874996 1.9999999999999998
    vertex 6037.766349454825 413.1183499874996 5.45
  endloop
endfacet
facet normal -1.0 -0.0 -0.0
  outer loop
    vertex 6037.766349454825 413.1183499874996 1.9999999999999998
    vertex 6037.766349454825 466.8683499875001 5.45
    vertex 6037.766349454825 466.8683499875001 1.9999999999999998
  endloop
endfacet
facet normal -0.0 -0.0 1.0
  outer loop
    vertex 6071.266349454823 414.61834998749987 1.9999999999999998
    vertex 6039.266349454825 465.3683499875 1.9999999999999998
    vertex 6039.266349454825 414.61834998749987 1.9999999999999998
  endloop
endfacet
facet normal -0.0 -0.0 1.0
  outer loop
    vertex 6039.266349454825 465.3683499875 1.9999999999999998
    vertex 6071.266349454823 414.61834998749987 1.9999999999999998
    vertex 6071.266349454823 465.3683499875 1.9999999999999998
  endloop
endfacet
facet normal 1.0 0.0 0.0
  outer loop
    vertex 6039.266349454825 465.3683499875 1.9999999999999998
    vertex 6039.266349454825 414.61834998749987 5.45
    vertex 6039.266349454825 414.61834998749987 1.9999999999999998
  endloop
endfacet
facet normal 1.0 0.0 0.0
  outer loop
    vertex 6039.266349454825 414.61834998749987 5.45
    vertex 6039.266349454825 465.3683499875 1.9999999999999998
    vertex 6039.266349454825 465.3683499875 5.45
  endloop
endfacet
facet normal 0.0 1.0 0.0
  outer loop
    vertex 6039.266349454825 414.61834998749987 5.45
    vertex 6071.266349454823 414.61834998749987 1.9999999999999998
    vertex 6039.266349454825 414.61834998749987 1.9999999999999998
  endloop
endfacet
facet normal 0.0 1.0 0.0
  outer loop
    vertex 6071.266349454823 414.61834998749987 1.9999999999999998
    vertex 6039.266349454825 414.61834998749987 5.45
    vertex 6071.266349454823 414.61834998749987 5.45
  endloop
endfacet
facet normal -1.0 -0.0 -0.0
  outer loop
    vertex 6071.266349454823 465.3683499875 5.45
    vertex 6071.266349454823 414.61834998749987 1.9999999999999998
    vertex 6071.266349454823 414.61834998749987 5.45
  endloop
endfacet
facet normal -1.0 -0.0 -0.0
  outer loop
    vertex 6071.266349454823 414.61834998749987 1.9999999999999998
    vertex 6071.266349454823 465.3683499875 5.45
    vertex 6071.266349454823 465.3683499875 1.9999999999999998
  endloop
endfacet
facet normal 0.0 -1.0 0.0
  outer loop
    vertex 6071.266349454823 465.3683499875 5.45
    vertex 6039.266349454825 465.3683499875 1.9999999999999998
    vertex 6071.266349454823 465.3683499875 1.9999999999999998
  endloop
endfacet
facet normal 0.0 -1.0 0.0
  outer loop
    vertex 6039.266349454825 465.3683499875 1.9999999999999998
    vertex 6071.266349454823 465.3683499875 5.45
    vertex 6039.266349454825 465.3683499875 5.45
  endloop
endfacet
facet normal 0.0 0.0 1.0
  outer loop
    vertex 6037.766349454825 413.1183499874996 5.45
    vertex 6039.266349454825 414.61834998749987 5.45
    vertex 6037.766349454825 466.8683499875001 5.45
  endloop
endfacet
facet normal 0.0 0.0 1.0
  outer loop
    vertex 6039.266349454825 414.61834998749987 5.45
    vertex 6037.766349454825 413.1183499874996 5.45
    vertex 6072.766349454824 413.1183499874996 5.45
  endloop
endfacet
facet normal 0.0 0.0 1.0
  outer loop
    vertex 6039.266349454825 414.61834998749987 5.45
    vertex 6072.766349454824 413.1183499874996 5.45
    vertex 6071.266349454823 414.61834998749987 5.45
  endloop
endfacet
facet normal 0.0 0.0 1.0
  outer loop
    vertex 6071.266349454823 414.61834998749987 5.45
    vertex 6072.766349454824 413.1183499874996 5.45
    vertex 6071.266349454823 465.3683499875 5.45
  endloop
endfacet
facet normal 0.0 0.0 1.0
  outer loop
    vertex 6037.766349454825 466.8683499875001 5.45
    vertex 6039.266349454825 465.3683499875 5.45
    vertex 6072.766349454824 466.8683499875001 5.45
  endloop
endfacet
facet normal 0.0 0.0 1.0
  outer loop
    vertex 6039.266349454825 465.3683499875 5.45
    vertex 6037.766349454825 466.8683499875001 5.45
    vertex 6039.266349454825 414.61834998749987 5.45
  endloop
endfacet
facet normal 0.0 0.0 1.0
  outer loop
    vertex 6072.766349454824 466.8683499875001 5.45
    vertex 6039.266349454825 465.3683499875 5.45
    vertex 6071.266349454823 465.3683499875 5.45
  endloop
endfacet
facet normal 0.0 0.0 1.0
  outer loop
    vertex 6072.766349454824 466.8683499875001 5.45
    vertex 6071.266349454823 465.3683499875 5.45
    vertex 6072.766349454824 413.1183499874996 5.45
  endloop
endfacet
endsolid CanbusGateway-V2.2-top
